<?xml version="1.0" encoding="UTF-8" standalone="no"?>
<!DOCTYPE svg PUBLIC "-//W3C//DTD SVG 1.1//EN" "http://www.w3.org/Graphics/SVG/1.1/DTD/svg11.dtd">
<svg width="100%" height="100%" viewBox="0 0 416 221" version="1.1" xmlns="http://www.w3.org/2000/svg" xmlns:xlink="http://www.w3.org/1999/xlink" xml:space="preserve" style="fill-rule:evenodd;clip-rule:evenodd;stroke-linejoin:bevel;stroke-miterlimit:79.8403;">
    <g id="Artboard1" transform="matrix(1.00246,0,0,0.80405,-31.3517,-84.0439)">
        <rect x="31.275" y="104.526" width="414.898" height="274.059" style="fill:none;"/>
        <g id="Spread" transform="matrix(0.99755,0,0,-1.2437,3.96167,527.493)">
            <g id="Links" transform="matrix(1.40075,0,0,1.40075,-72.2779,-135.639)">
                <path d="M89.207,222.743L191.74,234.49L261.838,191.482L350.308,235.087L293.196,303.114L331.245,329.782" style="fill:none;stroke:rgb(216,50,0);stroke-width:2.25px;"/>
                <path d="M293.196,303.114L191.74,234.49" style="fill:none;stroke:rgb(216,50,0);stroke-width:2.25px;"/>
            </g>
            <g id="Scaled-Stars" transform="matrix(1.40075,0,0,1.40075,-72.2779,-135.639)">
                <path d="M326.267,328.742C325.643,331.391 327.287,334.047 329.937,334.67C332.586,335.294 335.242,333.65 335.865,331C336.489,328.351 334.845,325.695 332.195,325.072C329.546,324.448 326.89,326.092 326.267,328.742Z" style="fill:rgb(41,44,44);stroke:rgb(41,41,41);stroke-width:3.57px;stroke-linejoin:round;stroke-miterlimit:1.41421;"/>
                <path d="M256.775,190.288C256.116,193.082 257.85,195.885 260.644,196.543C263.438,197.202 266.241,195.468 266.899,192.674C267.558,189.88 265.824,187.077 263.03,186.419C260.236,185.76 257.433,187.494 256.775,190.288Z" style="fill:rgb(41,44,44);stroke:rgb(41,41,41);stroke-width:3.57px;stroke-linejoin:round;stroke-miterlimit:1.41421;"/>
                <path d="M344.329,233.678C343.552,236.978 345.6,240.287 348.899,241.064C352.199,241.841 355.508,239.793 356.285,236.494C357.062,233.194 355.014,229.885 351.715,229.108C348.415,228.331 345.106,230.379 344.329,233.678Z" style="fill:rgb(41,44,44);stroke:rgb(41,41,41);stroke-width:3.57px;stroke-linejoin:round;stroke-miterlimit:1.41421;"/>
                <path d="M184.164,232.703C183.18,236.883 185.775,241.074 189.955,242.058C194.135,243.042 198.326,240.447 199.31,236.267C200.294,232.087 197.699,227.896 193.519,226.912C189.339,225.928 185.148,228.523 184.164,232.703Z" style="fill:rgb(41,44,44);stroke:rgb(41,41,41);stroke-width:3.57px;stroke-linejoin:round;stroke-miterlimit:1.41421;"/>
                <path d="M83.099,221.305C82.305,224.676 84.397,228.057 87.768,228.85C91.139,229.644 94.52,227.552 95.313,224.181C96.107,220.81 94.015,217.429 90.644,216.636C87.273,215.842 83.892,217.934 83.099,221.305Z" style="fill:rgb(41,44,44);stroke:rgb(41,41,41);stroke-width:3.57px;stroke-linejoin:round;stroke-miterlimit:1.41421;"/>
            </g>
            <g id="Maia" transform="matrix(5.53888,0,0,5.53888,-1285.56,-1389.96)">
                <path d="M288.163,301.929C287.509,304.707 289.233,307.493 292.011,308.147C294.789,308.801 297.575,307.077 298.229,304.299C298.883,301.521 297.159,298.735 294.381,298.081C291.603,297.427 288.817,299.151 288.163,301.929Z" style="fill:rgb(255,0,13);"/>
                <path d="M293.254,309.73L293.295,309.729L293.336,309.728L293.377,309.727L293.418,309.726L293.458,309.725L293.499,309.723L293.54,309.721L293.581,309.719L293.622,309.716L293.662,309.714L293.703,309.711L293.743,309.707L293.784,309.704L293.824,309.7L293.865,309.696L293.905,309.692L293.945,309.687L293.986,309.683L294.026,309.678L294.066,309.672L294.106,309.667L294.146,309.661L294.186,309.655L294.226,309.649L294.266,309.643L294.306,309.636L294.345,309.629L294.385,309.622L294.425,309.615L294.464,309.607L294.504,309.599L294.543,309.591L294.582,309.583L294.622,309.574L294.661,309.565L294.7,309.556L294.739,309.547L294.778,309.538L294.817,309.528L294.856,309.518L294.894,309.508L294.933,309.497L294.971,309.487L295.01,309.476L295.048,309.465L295.087,309.453L295.125,309.442L295.163,309.43L295.201,309.418L295.239,309.406L295.277,309.393L295.315,309.38L295.353,309.367L295.39,309.354L295.428,309.341L295.465,309.327L295.502,309.314L295.54,309.3L295.577,309.285L295.614,309.271L295.651,309.256L295.688,309.241L295.725,309.226L295.761,309.211L295.798,309.195L295.834,309.18L295.871,309.164L295.907,309.147L295.943,309.131L295.979,309.114L296.015,309.097L296.051,309.08L296.087,309.063L296.122,309.046L296.158,309.028L296.193,309.01L296.228,308.992L296.264,308.974L296.299,308.955L296.334,308.937L296.368,308.918L296.403,308.899L296.438,308.879L296.472,308.86L296.507,308.84L296.541,308.82L296.575,308.8L296.609,308.78L296.643,308.759L296.677,308.738L296.71,308.717L296.744,308.696L296.777,308.675L296.81,308.653L296.843,308.631L296.876,308.609L296.909,308.587L296.942,308.565L296.975,308.542L297.007,308.52L297.039,308.497L297.072,308.474L297.104,308.45L297.136,308.427L297.167,308.403L297.199,308.379L297.231,308.355L297.262,308.331L297.293,308.306L297.324,308.282L297.355,308.257L297.386,308.232L297.417,308.207L297.447,308.181L297.478,308.156L297.508,308.13L297.538,308.104L297.568,308.078L297.598,308.051L297.627,308.025L297.657,307.998L297.686,307.971L297.715,307.944L297.744,307.917L297.773,307.889L297.802,307.862L297.83,307.834L297.859,307.806L297.887,307.778L297.915,307.75L297.943,307.721L297.971,307.692L297.998,307.663L298.026,307.634L298.053,307.605L298.08,307.576L298.107,307.546L298.134,307.516L298.16,307.486L298.187,307.456L298.213,307.426L298.239,307.396L298.265,307.365L298.291,307.334L298.316,307.303L298.341,307.272L298.367,307.241L298.392,307.209L298.417,307.178L298.441,307.146L298.466,307.114L298.49,307.082L298.514,307.049L298.538,307.017L298.562,306.984L298.585,306.952L298.608,306.919L298.632,306.885L298.655,306.852L298.677,306.819L298.7,306.785L298.722,306.751L298.745,306.717L298.767,306.683L298.788,306.649L298.81,306.615L298.831,306.58L298.853,306.545L298.874,306.511L298.894,306.476L298.915,306.44L298.935,306.405L298.956,306.37L298.976,306.334L298.995,306.298L299.015,306.262L299.034,306.226L299.053,306.19L299.072,306.154L299.091,306.117L299.11,306.081L299.128,306.044L299.146,306.007L299.164,305.97L299.181,305.933L299.199,305.895L299.216,305.858L299.233,305.82L299.25,305.782L299.266,305.744L299.283,305.706L299.299,305.668L299.315,305.63L299.33,305.591L299.346,305.553L299.361,305.514L299.376,305.475L299.391,305.436L299.405,305.397L299.419,305.358L299.433,305.318L299.447,305.279L299.461,305.239L299.474,305.199L299.487,305.159L299.5,305.119L299.513,305.079L299.525,305.039L299.537,304.999L299.549,304.958L299.56,304.918L299.572,304.877L299.583,304.836L299.594,304.795L299.604,304.754L299.615,304.713L299.625,304.671L299.635,304.63L299.645,304.589L299.654,304.547L299.663,304.505L299.672,304.464L299.68,304.422L299.689,304.381L299.697,304.339L299.704,304.298L299.712,304.256L299.719,304.215L299.726,304.173L299.732,304.132L299.739,304.09L299.745,304.049L299.751,304.007L299.756,303.966L299.762,303.924L299.767,303.883L299.771,303.841L299.776,303.8L299.78,303.758L299.784,303.717L299.788,303.675L299.791,303.634L299.794,303.592L299.797,303.551L299.8,303.51L299.802,303.468L299.804,303.427L299.806,303.386L299.808,303.344L299.809,303.303L299.81,303.262L299.811,303.221L299.812,303.18L299.812,303.139L299.812,303.097L299.812,303.056L299.811,303.015L299.81,302.974L299.809,302.933L299.808,302.893L299.807,302.852L299.805,302.811L299.803,302.77L299.801,302.729L299.798,302.688L299.796,302.648L299.793,302.607L299.789,302.567L299.786,302.526L299.782,302.486L299.778,302.445L299.774,302.405L299.769,302.365L299.765,302.324L299.76,302.284L299.754,302.244L299.749,302.204L299.743,302.164L299.737,302.124L299.731,302.084L299.725,302.044L299.718,302.004L299.711,301.965L299.704,301.925L299.697,301.885L299.689,301.846L299.681,301.806L299.673,301.767L299.665,301.728L299.656,301.688L299.647,301.649L299.638,301.61L299.629,301.571L299.619,301.532L299.61,301.493L299.6,301.454L299.59,301.416L299.579,301.377L299.569,301.338L299.558,301.3L299.547,301.262L299.535,301.223L299.524,301.185L299.512,301.147L299.5,301.109L299.488,301.071L299.475,301.033L299.462,300.995L299.449,300.957L299.436,300.92L299.423,300.882L299.409,300.845L299.396,300.808L299.382,300.77L299.367,300.733L299.353,300.696L299.338,300.659L299.323,300.622L299.308,300.585L299.293,300.549L299.277,300.512L299.261,300.476L299.246,300.439L299.229,300.403L299.213,300.367L299.196,300.331L299.179,300.295L299.162,300.259L299.145,300.224L299.128,300.188L299.11,300.152L299.092,300.117L299.074,300.082L299.056,300.046L299.037,300.011L299.019,299.976L299,299.942L298.981,299.907L298.961,299.872L298.942,299.838L298.922,299.803L298.902,299.769L298.882,299.735L298.861,299.701L298.841,299.667L298.82,299.633L298.799,299.6L298.778,299.566L298.757,299.533L298.735,299.5L298.713,299.467L298.691,299.434L298.669,299.401L298.647,299.368L298.624,299.335L298.602,299.303L298.579,299.271L298.556,299.238L298.532,299.206L298.509,299.174L298.485,299.143L298.461,299.111L298.437,299.079L298.413,299.048L298.388,299.017L298.364,298.986L298.339,298.955L298.314,298.924L298.289,298.893L298.263,298.863L298.238,298.832L298.212,298.802L298.186,298.772L298.16,298.742L298.133,298.712L298.107,298.683L298.08,298.653L298.053,298.624L298.026,298.595L297.999,298.566L297.971,298.537L297.944,298.508L297.916,298.48L297.888,298.451L297.86,298.423L297.832,298.395L297.803,298.367L297.774,298.339L297.745,298.312L297.716,298.284L297.687,298.257L297.658,298.23L297.628,298.203L297.598,298.176L297.568,298.15L297.538,298.123L297.508,298.097L297.478,298.071L297.447,298.045L297.416,298.019L297.385,297.994L297.354,297.969L297.323,297.943L297.291,297.918L297.26,297.893L297.228,297.869L297.196,297.844L297.164,297.82L297.131,297.796L297.099,297.772L297.066,297.748L297.034,297.725L297.001,297.702L296.967,297.678L296.934,297.655L296.901,297.633L296.867,297.61L296.833,297.588L296.799,297.565L296.765,297.543L296.731,297.522L296.697,297.5L296.662,297.479L296.628,297.457L296.593,297.436L296.558,297.416L296.522,297.395L296.487,297.375L296.452,297.354L296.416,297.334L296.38,297.315L296.344,297.295L296.308,297.276L296.272,297.257L296.236,297.238L296.199,297.219L296.163,297.2L296.126,297.182L296.089,297.164L296.052,297.146L296.015,297.129L295.977,297.111L295.94,297.094L295.902,297.077L295.864,297.06L295.826,297.044L295.788,297.027L295.75,297.011L295.712,296.995L295.673,296.98L295.635,296.964L295.596,296.949L295.557,296.934L295.518,296.919L295.479,296.905L295.44,296.891L295.4,296.877L295.361,296.863L295.321,296.849L295.281,296.836L295.241,296.823L295.201,296.81L295.161,296.797L295.121,296.785L295.081,296.773L295.04,296.761L295,296.75L294.959,296.738L294.918,296.727L294.877,296.716L294.836,296.706L294.795,296.695L294.753,296.685L294.712,296.675L294.671,296.665L294.629,296.656L294.588,296.647L294.546,296.638L294.504,296.63L294.463,296.621L294.421,296.613L294.38,296.606L294.338,296.598L294.297,296.591L294.255,296.584L294.214,296.578L294.172,296.571L294.131,296.565L294.089,296.559L294.048,296.554L294.006,296.548L293.965,296.543L293.923,296.539L293.882,296.534L293.84,296.53L293.799,296.526L293.757,296.522L293.716,296.519L293.674,296.516L293.633,296.513L293.592,296.51L293.55,296.508L293.509,296.506L293.468,296.504L293.426,296.502L293.385,296.501L293.344,296.5L293.303,296.499L293.262,296.498L293.221,296.498L293.179,296.498L293.138,296.498L293.097,296.499L293.056,296.5L293.015,296.501L292.974,296.502L292.934,296.503L292.893,296.505L292.852,296.507L292.811,296.509L292.77,296.512L292.73,296.514L292.689,296.517L292.649,296.521L292.608,296.524L292.568,296.528L292.527,296.532L292.487,296.536L292.447,296.541L292.406,296.545L292.366,296.55L292.326,296.556L292.286,296.561L292.246,296.567L292.206,296.573L292.166,296.579L292.126,296.585L292.086,296.592L292.047,296.599L292.007,296.606L291.967,296.613L291.928,296.621L291.888,296.629L291.849,296.637L291.81,296.645L291.77,296.654L291.731,296.663L291.692,296.672L291.653,296.681L291.614,296.691L291.575,296.7L291.536,296.71L291.498,296.72L291.459,296.731L291.42,296.741L291.382,296.752L291.344,296.763L291.305,296.775L291.267,296.786L291.229,296.798L291.191,296.81L291.153,296.822L291.115,296.835L291.077,296.848L291.039,296.861L291.002,296.874L290.964,296.887L290.927,296.901L290.89,296.914L290.852,296.928L290.815,296.943L290.778,296.957L290.741,296.972L290.704,296.987L290.667,297.002L290.631,297.017L290.594,297.033L290.558,297.049L290.521,297.064L290.485,297.081L290.449,297.097L290.413,297.114L290.377,297.131L290.341,297.148L290.305,297.165L290.27,297.182L290.234,297.2L290.199,297.218L290.164,297.236L290.128,297.254L290.093,297.273L290.058,297.291L290.024,297.31L289.989,297.329L289.954,297.349L289.92,297.368L289.885,297.388L289.851,297.408L289.817,297.428L289.783,297.449L289.749,297.469L289.715,297.49L289.682,297.511L289.648,297.532L289.615,297.553L289.582,297.575L289.549,297.597L289.516,297.618L289.483,297.641L289.45,297.663L289.417,297.686L289.385,297.708L289.353,297.731L289.32,297.754L289.288,297.778L289.256,297.801L289.225,297.825L289.193,297.849L289.161,297.873L289.13,297.897L289.099,297.922L289.068,297.946L289.037,297.971L289.006,297.996L288.975,298.021L288.945,298.047L288.914,298.072L288.884,298.098L288.854,298.124L288.824,298.15L288.794,298.177L288.765,298.203L288.735,298.23L288.706,298.257L288.677,298.284L288.648,298.311L288.619,298.339L288.59,298.366L288.562,298.394L288.533,298.422L288.505,298.45L288.477,298.478L288.449,298.507L288.421,298.536L288.394,298.565L288.366,298.594L288.339,298.623L288.312,298.652L288.285,298.682L288.258,298.712L288.232,298.742L288.205,298.772L288.179,298.802L288.153,298.832L288.127,298.863L288.101,298.894L288.076,298.925L288.051,298.956L288.025,298.987L288,299.019L287.975,299.05L287.951,299.082L287.926,299.114L287.902,299.146L287.878,299.179L287.854,299.211L287.83,299.244L287.807,299.276L287.784,299.309L287.76,299.343L287.737,299.376L287.715,299.409L287.692,299.443L287.67,299.477L287.647,299.511L287.625,299.545L287.604,299.579L287.582,299.613L287.561,299.648L287.539,299.682L287.518,299.717L287.498,299.752L287.477,299.787L287.457,299.823L287.436,299.858L287.416,299.894L287.397,299.93L287.377,299.966L287.358,300.002L287.339,300.038L287.32,300.074L287.301,300.111L287.282,300.147L287.264,300.184L287.246,300.221L287.228,300.258L287.211,300.296L287.193,300.333L287.176,300.37L287.159,300.408L287.142,300.446L287.126,300.484L287.109,300.522L287.093,300.56L287.077,300.598L287.062,300.637L287.046,300.675L287.031,300.714L287.016,300.753L287.001,300.792L286.987,300.831L286.973,300.87L286.959,300.91L286.945,300.949L286.931,300.989L286.918,301.029L286.905,301.069L286.892,301.109L286.88,301.149L286.867,301.189L286.855,301.229L286.843,301.27L286.832,301.31L286.82,301.351L286.809,301.392L286.798,301.433L286.788,301.474L286.777,301.515L286.767,301.557L286.757,301.598L286.747,301.64L286.738,301.681L286.729,301.722L286.72,301.764L286.712,301.806L286.703,301.847L286.695,301.889L286.688,301.93L286.68,301.972L286.673,302.013L286.666,302.055L286.66,302.096L286.653,302.138L286.647,302.179L286.641,302.221L286.636,302.262L286.63,302.304L286.625,302.345L286.621,302.387L286.616,302.428L286.612,302.47L286.608,302.511L286.604,302.553L286.601,302.594L286.598,302.636L286.595,302.677L286.592,302.718L286.59,302.76L286.588,302.801L286.586,302.842L286.584,302.884L286.583,302.925L286.582,302.966L286.581,303.007L286.58,303.048L286.58,303.089L286.58,303.131L286.58,303.172L286.581,303.213L286.582,303.254L286.583,303.295L286.584,303.336L286.585,303.376L286.587,303.417L286.589,303.458L286.591,303.499L286.594,303.539L286.596,303.58L286.599,303.621L286.603,303.661L286.606,303.702L286.61,303.742L286.614,303.783L286.618,303.823L286.623,303.863L286.627,303.904L286.632,303.944L286.638,303.984L286.643,304.024L286.649,304.064L286.655,304.104L286.661,304.144L286.667,304.184L286.674,304.224L286.681,304.263L286.688,304.303L286.695,304.343L286.703,304.382L286.711,304.422L286.719,304.461L286.727,304.5L286.736,304.54L286.745,304.579L286.754,304.618L286.763,304.657L286.773,304.696L286.782,304.735L286.792,304.774L286.802,304.812L286.813,304.851L286.823,304.89L286.834,304.928L286.845,304.966L286.857,305.005L286.868,305.043L286.88,305.081L286.892,305.119L286.904,305.157L286.917,305.195L286.93,305.233L286.943,305.271L286.956,305.308L286.969,305.346L286.983,305.383L286.996,305.42L287.01,305.458L287.025,305.495L287.039,305.532L287.054,305.569L287.069,305.606L287.084,305.642L287.099,305.679L287.115,305.716L287.13,305.752L287.146,305.789L287.163,305.825L287.179,305.861L287.196,305.897L287.213,305.933L287.23,305.969L287.247,306.005L287.264,306.04L287.282,306.076L287.3,306.111L287.318,306.146L287.336,306.182L287.355,306.217L287.373,306.252L287.392,306.286L287.411,306.321L287.431,306.356L287.45,306.39L287.47,306.424L287.49,306.459L287.51,306.493L287.531,306.527L287.551,306.561L287.572,306.594L287.593,306.628L287.614,306.662L287.635,306.695L287.657,306.728L287.679,306.761L287.701,306.794L287.723,306.827L287.745,306.86L287.768,306.893L287.79,306.925L287.813,306.957L287.836,306.99L287.86,307.022L287.883,307.054L287.907,307.085L287.931,307.117L287.955,307.149L287.979,307.18L288.004,307.211L288.028,307.242L288.053,307.273L288.078,307.304L288.103,307.335L288.129,307.365L288.154,307.396L288.18,307.426L288.206,307.456L288.232,307.486L288.259,307.516L288.285,307.545L288.312,307.575L288.339,307.604L288.366,307.633L288.393,307.662L288.421,307.691L288.448,307.72L288.476,307.748L288.504,307.777L288.532,307.805L288.56,307.833L288.589,307.861L288.618,307.889L288.647,307.916L288.676,307.944L288.705,307.971L288.734,307.998L288.764,308.025L288.794,308.052L288.824,308.078L288.854,308.105L288.884,308.131L288.914,308.157L288.945,308.183L288.976,308.209L289.007,308.234L289.038,308.26L289.069,308.285L289.101,308.31L289.132,308.335L289.164,308.359L289.196,308.384L289.228,308.408L289.261,308.432L289.293,308.456L289.326,308.48L289.358,308.503L289.391,308.526L289.425,308.55L289.458,308.573L289.491,308.595L289.525,308.618L289.559,308.64L289.593,308.663L289.627,308.685L289.661,308.706L289.695,308.728L289.73,308.749L289.765,308.771L289.799,308.792L289.834,308.812L289.87,308.833L289.905,308.853L289.94,308.874L289.976,308.894L290.012,308.913L290.048,308.933L290.084,308.952L290.12,308.971L290.156,308.99L290.193,309.009L290.229,309.028L290.266,309.046L290.303,309.064L290.34,309.082L290.377,309.099L290.415,309.117L290.452,309.134L290.49,309.151L290.528,309.168L290.566,309.184L290.604,309.201L290.642,309.217L290.68,309.233L290.719,309.248L290.757,309.264L290.796,309.279L290.835,309.294L290.874,309.309L290.913,309.323L290.952,309.337L290.992,309.351L291.031,309.365L291.071,309.379L291.111,309.392L291.151,309.405L291.191,309.418L291.231,309.43L291.271,309.443L291.311,309.455L291.352,309.467L291.392,309.478L291.433,309.49L291.474,309.501L291.515,309.512L291.556,309.522L291.597,309.533L291.639,309.543L291.68,309.553L291.721,309.563L291.763,309.572L291.804,309.581L291.846,309.59L291.888,309.598L291.929,309.607L291.971,309.615L292.012,309.622L292.054,309.63L292.095,309.637L292.137,309.644L292.178,309.65L292.22,309.657L292.261,309.663L292.303,309.669L292.344,309.674L292.386,309.68L292.427,309.685L292.469,309.689L292.51,309.694L292.552,309.698L292.593,309.702L292.635,309.706L292.676,309.709L292.718,309.712L292.759,309.715L292.8,309.718L292.842,309.72L292.883,309.722L292.924,309.724L292.966,309.726L293.007,309.727L293.048,309.728L293.089,309.729L293.13,309.73L293.171,309.73L293.213,309.73L293.254,309.73ZM293.183,306.841L293.16,306.841L293.137,306.841L293.114,306.84L293.091,306.84L293.068,306.839L293.045,306.838L293.022,306.837L292.998,306.836L292.975,306.834L292.952,306.833L292.929,306.831L292.905,306.83L292.882,306.828L292.859,306.826L292.835,306.823L292.812,306.821L292.789,306.818L292.765,306.816L292.742,306.813L292.719,306.81L292.695,306.807L292.672,306.803L292.648,306.8L292.625,306.796L292.601,306.793L292.578,306.789L292.554,306.785L292.531,306.781L292.507,306.776L292.484,306.772L292.46,306.767L292.436,306.762L292.413,306.757L292.389,306.752L292.366,306.747L292.342,306.741L292.318,306.735L292.295,306.73L292.271,306.724L292.248,306.718L292.225,306.712L292.202,306.705L292.179,306.699L292.156,306.692L292.133,306.685L292.11,306.679L292.087,306.672L292.064,306.664L292.042,306.657L292.019,306.65L291.997,306.642L291.974,306.635L291.952,306.627L291.93,306.619L291.908,306.611L291.886,306.603L291.864,306.595L291.842,306.586L291.82,306.578L291.798,306.569L291.777,306.56L291.755,306.551L291.734,306.542L291.712,306.533L291.691,306.524L291.67,306.514L291.649,306.505L291.628,306.495L291.607,306.485L291.586,306.475L291.565,306.465L291.544,306.455L291.524,306.445L291.503,306.435L291.483,306.424L291.462,306.414L291.442,306.403L291.422,306.392L291.402,306.381L291.382,306.37L291.362,306.359L291.342,306.347L291.322,306.336L291.302,306.324L291.283,306.313L291.263,306.301L291.244,306.289L291.224,306.277L291.205,306.265L291.186,306.253L291.167,306.24L291.148,306.228L291.129,306.215L291.11,306.203L291.091,306.19L291.072,306.177L291.054,306.164L291.035,306.151L291.017,306.138L290.999,306.124L290.98,306.111L290.962,306.098L290.944,306.084L290.926,306.07L290.908,306.056L290.891,306.042L290.873,306.028L290.855,306.014L290.838,306L290.82,305.986L290.803,305.971L290.786,305.957L290.769,305.942L290.752,305.927L290.735,305.912L290.718,305.897L290.701,305.882L290.685,305.867L290.668,305.852L290.652,305.837L290.635,305.821L290.619,305.806L290.603,305.79L290.587,305.774L290.571,305.758L290.555,305.743L290.539,305.727L290.523,305.71L290.508,305.694L290.492,305.678L290.477,305.662L290.462,305.645L290.447,305.629L290.431,305.612L290.416,305.595L290.402,305.578L290.387,305.562L290.372,305.545L290.358,305.527L290.343,305.51L290.329,305.493L290.315,305.476L290.3,305.458L290.286,305.441L290.272,305.423L290.259,305.406L290.245,305.388L290.231,305.37L290.218,305.352L290.204,305.334L290.191,305.316L290.178,305.298L290.165,305.28L290.152,305.262L290.139,305.243L290.126,305.225L290.114,305.206L290.101,305.188L290.089,305.169L290.076,305.15L290.064,305.131L290.052,305.112L290.04,305.094L290.028,305.075L290.016,305.055L290.005,305.036L289.993,305.017L289.982,304.998L289.971,304.978L289.959,304.959L289.948,304.939L289.937,304.92L289.927,304.9L289.916,304.88L289.905,304.861L289.895,304.841L289.885,304.821L289.874,304.801L289.864,304.781L289.854,304.761L289.844,304.741L289.835,304.721L289.825,304.7L289.815,304.68L289.806,304.66L289.797,304.639L289.788,304.619L289.779,304.598L289.77,304.578L289.761,304.557L289.752,304.536L289.744,304.515L289.735,304.495L289.727,304.474L289.719,304.453L289.711,304.432L289.703,304.411L289.695,304.39L289.687,304.369L289.68,304.347L289.673,304.326L289.665,304.305L289.658,304.284L289.651,304.262L289.644,304.241L289.637,304.219L289.631,304.198L289.624,304.176L289.618,304.155L289.612,304.133L289.605,304.112L289.599,304.09L289.594,304.068L289.588,304.046L289.582,304.025L289.577,304.003L289.571,303.981L289.566,303.959L289.561,303.937L289.556,303.915L289.551,303.893L289.547,303.871L289.542,303.849L289.538,303.826L289.533,303.804L289.529,303.782L289.525,303.76L289.521,303.737L289.518,303.715L289.514,303.693L289.511,303.67L289.507,303.648L289.504,303.625L289.501,303.603L289.498,303.58L289.495,303.558L289.493,303.535L289.49,303.513L289.488,303.49L289.486,303.467L289.483,303.445L289.481,303.422L289.48,303.399L289.478,303.377L289.476,303.354L289.475,303.331L289.474,303.308L289.473,303.285L289.472,303.262L289.471,303.239L289.47,303.216L289.47,303.194L289.469,303.171L289.469,303.148L289.469,303.125L289.469,303.101L289.469,303.078L289.469,303.055L289.47,303.032L289.47,303.009L289.471,302.986L289.472,302.963L289.473,302.94L289.474,302.916L289.476,302.893L289.477,302.87L289.479,302.847L289.48,302.823L289.482,302.8L289.484,302.777L289.487,302.753L289.489,302.73L289.492,302.707L289.494,302.683L289.497,302.66L289.5,302.637L289.503,302.613L289.507,302.59L289.51,302.566L289.514,302.543L289.517,302.519L289.521,302.496L289.525,302.472L289.529,302.449L289.534,302.425L289.538,302.402L289.543,302.378L289.548,302.354L289.553,302.331L289.558,302.307L289.563,302.284L289.569,302.26L289.575,302.236L289.58,302.213L289.586,302.189L289.592,302.166L289.598,302.143L289.605,302.12L289.611,302.097L289.618,302.074L289.625,302.051L289.631,302.028L289.638,302.005L289.646,301.982L289.653,301.96L289.66,301.937L289.668,301.915L289.675,301.892L289.683,301.87L289.691,301.848L289.699,301.826L289.707,301.804L289.715,301.782L289.724,301.76L289.732,301.738L289.741,301.716L289.75,301.695L289.759,301.673L289.768,301.652L289.777,301.63L289.786,301.609L289.796,301.588L289.805,301.567L289.815,301.546L289.825,301.525L289.835,301.504L289.845,301.483L289.855,301.462L289.865,301.442L289.875,301.421L289.886,301.401L289.897,301.38L289.907,301.36L289.918,301.34L289.929,301.32L289.94,301.3L289.951,301.28L289.963,301.26L289.974,301.24L289.986,301.22L289.997,301.201L290.009,301.181L290.021,301.161L290.033,301.142L290.045,301.123L290.057,301.104L290.07,301.085L290.082,301.066L290.095,301.047L290.107,301.028L290.12,301.009L290.133,300.99L290.146,300.972L290.159,300.953L290.172,300.935L290.186,300.917L290.199,300.898L290.212,300.88L290.226,300.862L290.24,300.844L290.254,300.826L290.268,300.809L290.282,300.791L290.296,300.773L290.31,300.756L290.324,300.738L290.339,300.721L290.353,300.704L290.368,300.687L290.383,300.67L290.398,300.653L290.413,300.636L290.428,300.619L290.443,300.603L290.458,300.586L290.473,300.57L290.489,300.553L290.504,300.537L290.52,300.521L290.536,300.505L290.552,300.489L290.567,300.473L290.583,300.457L290.6,300.441L290.616,300.426L290.632,300.41L290.648,300.395L290.665,300.38L290.681,300.365L290.698,300.349L290.715,300.334L290.732,300.32L290.748,300.305L290.765,300.29L290.783,300.276L290.8,300.261L290.817,300.247L290.834,300.233L290.852,300.218L290.869,300.204L290.887,300.19L290.904,300.177L290.922,300.163L290.94,300.149L290.958,300.136L290.976,300.122L290.994,300.109L291.012,300.096L291.03,300.083L291.049,300.07L291.067,300.057L291.085,300.044L291.104,300.032L291.122,300.019L291.141,300.007L291.16,299.994L291.179,299.982L291.198,299.97L291.216,299.958L291.236,299.946L291.255,299.934L291.274,299.923L291.293,299.911L291.312,299.9L291.332,299.889L291.351,299.877L291.371,299.866L291.39,299.855L291.41,299.845L291.43,299.834L291.449,299.823L291.469,299.813L291.489,299.803L291.509,299.792L291.529,299.782L291.549,299.772L291.569,299.762L291.589,299.753L291.61,299.743L291.63,299.733L291.65,299.724L291.671,299.715L291.691,299.706L291.712,299.697L291.732,299.688L291.753,299.679L291.774,299.67L291.795,299.662L291.815,299.653L291.836,299.645L291.857,299.637L291.878,299.629L291.899,299.621L291.92,299.613L291.941,299.605L291.963,299.598L291.984,299.591L292.005,299.583L292.026,299.576L292.048,299.569L292.069,299.562L292.091,299.555L292.112,299.549L292.134,299.542L292.155,299.536L292.177,299.53L292.198,299.523L292.22,299.517L292.242,299.512L292.264,299.506L292.285,299.5L292.307,299.495L292.329,299.489L292.351,299.484L292.373,299.479L292.395,299.474L292.417,299.469L292.439,299.465L292.461,299.46L292.484,299.456L292.506,299.451L292.528,299.447L292.55,299.443L292.573,299.439L292.595,299.436L292.617,299.432L292.64,299.429L292.662,299.425L292.685,299.422L292.707,299.419L292.73,299.416L292.752,299.413L292.775,299.411L292.797,299.408L292.82,299.406L292.843,299.404L292.865,299.401L292.888,299.399L292.911,299.398L292.933,299.396L292.956,299.394L292.979,299.393L293.002,299.392L293.025,299.391L293.048,299.39L293.071,299.389L293.093,299.388L293.116,299.388L293.139,299.387L293.162,299.387L293.185,299.387L293.209,299.387L293.232,299.387L293.255,299.387L293.278,299.388L293.301,299.388L293.324,299.389L293.347,299.39L293.37,299.391L293.394,299.392L293.417,299.394L293.44,299.395L293.463,299.397L293.487,299.398L293.51,299.4L293.533,299.402L293.557,299.405L293.58,299.407L293.603,299.41L293.627,299.412L293.65,299.415L293.673,299.418L293.697,299.421L293.72,299.425L293.744,299.428L293.767,299.432L293.791,299.435L293.814,299.439L293.838,299.443L293.861,299.447L293.885,299.452L293.908,299.456L293.932,299.461L293.956,299.466L293.979,299.471L294.003,299.476L294.026,299.481L294.05,299.487L294.074,299.493L294.097,299.498L294.121,299.504L294.144,299.51L294.167,299.516L294.19,299.523L294.213,299.529L294.237,299.536L294.259,299.543L294.282,299.549L294.305,299.556L294.328,299.564L294.35,299.571L294.373,299.578L294.395,299.586L294.418,299.593L294.44,299.601L294.462,299.609L294.484,299.617L294.506,299.625L294.528,299.633L294.55,299.642L294.572,299.65L294.594,299.659L294.615,299.668L294.637,299.677L294.658,299.686L294.68,299.695L294.701,299.704L294.722,299.714L294.743,299.723L294.764,299.733L294.785,299.743L294.806,299.753L294.827,299.763L294.848,299.773L294.868,299.783L294.889,299.793L294.909,299.804L294.93,299.814L294.95,299.825L294.97,299.836L294.99,299.847L295.011,299.858L295.03,299.869L295.05,299.881L295.07,299.892L295.09,299.904L295.109,299.915L295.129,299.927L295.148,299.939L295.168,299.951L295.187,299.963L295.206,299.975L295.225,299.988L295.244,300L295.263,300.013L295.282,300.025L295.301,300.038L295.32,300.051L295.338,300.064L295.357,300.077L295.375,300.09L295.393,300.104L295.412,300.117L295.43,300.13L295.448,300.144L295.466,300.158L295.484,300.172L295.501,300.186L295.519,300.2L295.537,300.214L295.554,300.228L295.572,300.242L295.589,300.257L295.606,300.271L295.623,300.286L295.64,300.301L295.657,300.316L295.674,300.331L295.691,300.346L295.707,300.361L295.724,300.376L295.74,300.391L295.757,300.407L295.773,300.422L295.789,300.438L295.805,300.454L295.821,300.47L295.837,300.485L295.853,300.501L295.869,300.518L295.884,300.534L295.9,300.55L295.915,300.566L295.93,300.583L295.945,300.599L295.961,300.616L295.976,300.633L295.99,300.65L296.005,300.666L296.02,300.683L296.034,300.7L296.049,300.718L296.063,300.735L296.077,300.752L296.092,300.77L296.106,300.787L296.12,300.805L296.133,300.822L296.147,300.84L296.161,300.858L296.174,300.876L296.188,300.894L296.201,300.912L296.214,300.93L296.227,300.948L296.24,300.967L296.253,300.985L296.266,301.003L296.278,301.022L296.291,301.04L296.303,301.059L296.316,301.078L296.328,301.097L296.34,301.116L296.352,301.134L296.364,301.154L296.376,301.173L296.387,301.192L296.399,301.211L296.41,301.23L296.421,301.25L296.433,301.269L296.444,301.289L296.455,301.308L296.465,301.328L296.476,301.348L296.487,301.367L296.497,301.387L296.507,301.407L296.518,301.427L296.528,301.447L296.538,301.467L296.548,301.487L296.557,301.507L296.567,301.528L296.577,301.548L296.586,301.568L296.595,301.589L296.604,301.609L296.613,301.63L296.622,301.65L296.631,301.671L296.64,301.692L296.648,301.713L296.657,301.733L296.665,301.754L296.673,301.775L296.681,301.796L296.689,301.817L296.697,301.838L296.705,301.859L296.712,301.881L296.719,301.902L296.727,301.923L296.734,301.944L296.741,301.966L296.748,301.987L296.755,302.009L296.761,302.03L296.768,302.052L296.774,302.073L296.78,302.095L296.787,302.116L296.793,302.138L296.798,302.16L296.804,302.182L296.81,302.203L296.815,302.225L296.821,302.247L296.826,302.269L296.831,302.291L296.836,302.313L296.841,302.335L296.845,302.357L296.85,302.379L296.854,302.402L296.859,302.424L296.863,302.446L296.867,302.468L296.871,302.491L296.874,302.513L296.878,302.535L296.881,302.558L296.885,302.58L296.888,302.603L296.891,302.625L296.894,302.648L296.897,302.67L296.899,302.693L296.902,302.715L296.904,302.738L296.906,302.761L296.909,302.783L296.911,302.806L296.912,302.829L296.914,302.851L296.916,302.874L296.917,302.897L296.918,302.92L296.919,302.943L296.92,302.966L296.921,302.988L296.922,303.012L296.922,303.035L296.923,303.057L296.923,303.08L296.923,303.103L296.923,303.127L296.923,303.15L296.923,303.173L296.922,303.196L296.922,303.219L296.921,303.242L296.92,303.265L296.919,303.288L296.918,303.312L296.916,303.335L296.915,303.358L296.913,303.381L296.912,303.405L296.91,303.428L296.908,303.451L296.905,303.475L296.903,303.498L296.9,303.521L296.898,303.545L296.895,303.568L296.892,303.592L296.889,303.615L296.885,303.638L296.882,303.662L296.878,303.685L296.875,303.709L296.871,303.732L296.867,303.756L296.863,303.779L296.858,303.803L296.854,303.826L296.849,303.85L296.844,303.874L296.839,303.897L296.834,303.921L296.829,303.944L296.823,303.968L296.817,303.992L296.812,304.015L296.806,304.039L296.8,304.062L296.794,304.085L296.787,304.108L296.781,304.131L296.774,304.155L296.767,304.177L296.761,304.2L296.754,304.223L296.746,304.246L296.739,304.268L296.732,304.291L296.724,304.313L296.717,304.336L296.709,304.358L296.701,304.38L296.693,304.402L296.685,304.424L296.677,304.446L296.668,304.468L296.66,304.49L296.651,304.512L296.642,304.533L296.633,304.555L296.624,304.576L296.615,304.598L296.606,304.619L296.596,304.64L296.587,304.661L296.577,304.682L296.567,304.703L296.557,304.724L296.547,304.745L296.537,304.766L296.527,304.786L296.517,304.807L296.506,304.827L296.496,304.848L296.485,304.868L296.474,304.888L296.463,304.908L296.452,304.929L296.441,304.948L296.429,304.968L296.418,304.988L296.406,305.008L296.395,305.027L296.383,305.047L296.371,305.066L296.359,305.086L296.347,305.105L296.335,305.124L296.322,305.143L296.31,305.162L296.297,305.181L296.285,305.2L296.272,305.219L296.259,305.238L296.246,305.256L296.233,305.275L296.22,305.293L296.206,305.311L296.193,305.33L296.18,305.348L296.166,305.366L296.152,305.384L296.138,305.402L296.124,305.419L296.11,305.437L296.096,305.455L296.082,305.472L296.068,305.49L296.053,305.507L296.039,305.524L296.024,305.541L296.009,305.558L295.994,305.575L295.979,305.592L295.964,305.609L295.949,305.625L295.934,305.642L295.919,305.658L295.903,305.675L295.888,305.691L295.872,305.707L295.856,305.723L295.84,305.739L295.825,305.755L295.809,305.771L295.792,305.787L295.776,305.802L295.76,305.818L295.744,305.833L295.727,305.848L295.711,305.864L295.694,305.879L295.677,305.894L295.66,305.908L295.644,305.923L295.627,305.938L295.609,305.952L295.592,305.967L295.575,305.981L295.558,305.995L295.54,306.01L295.523,306.024L295.505,306.038L295.488,306.051L295.47,306.065L295.452,306.079L295.434,306.092L295.416,306.106L295.398,306.119L295.38,306.132L295.362,306.145L295.343,306.158L295.325,306.171L295.307,306.184L295.288,306.196L295.27,306.209L295.251,306.221L295.232,306.234L295.213,306.246L295.194,306.258L295.175,306.27L295.156,306.282L295.137,306.294L295.118,306.305L295.099,306.317L295.08,306.328L295.06,306.339L295.041,306.351L295.021,306.362L295.002,306.373L294.982,306.383L294.962,306.394L294.943,306.405L294.923,306.415L294.903,306.425L294.883,306.436L294.863,306.446L294.843,306.456L294.823,306.466L294.803,306.475L294.782,306.485L294.762,306.495L294.742,306.504L294.721,306.513L294.701,306.522L294.68,306.531L294.66,306.54L294.639,306.549L294.618,306.558L294.597,306.566L294.577,306.575L294.556,306.583L294.535,306.591L294.514,306.599L294.493,306.607L294.472,306.615L294.451,306.623L294.429,306.63L294.408,306.637L294.387,306.645L294.366,306.652L294.344,306.659L294.323,306.666L294.302,306.673L294.28,306.679L294.258,306.686L294.237,306.692L294.215,306.698L294.194,306.705L294.172,306.711L294.15,306.716L294.128,306.722L294.107,306.728L294.085,306.733L294.063,306.739L294.041,306.744L294.019,306.749L293.997,306.754L293.975,306.759L293.953,306.763L293.931,306.768L293.908,306.772L293.886,306.777L293.864,306.781L293.842,306.785L293.819,306.789L293.797,306.792L293.775,306.796L293.752,306.799L293.73,306.803L293.707,306.806L293.685,306.809L293.662,306.812L293.64,306.815L293.617,306.817L293.595,306.82L293.572,306.822L293.549,306.824L293.527,306.827L293.504,306.829L293.481,306.83L293.459,306.832L293.436,306.834L293.413,306.835L293.39,306.836L293.367,306.837L293.344,306.838L293.321,306.839L293.299,306.84L293.276,306.84L293.253,306.841L293.23,306.841L293.207,306.841L293.183,306.841Z" style="fill:rgb(255,0,11);"/>
            </g>
        </g>
    </g>
</svg>
